<svg width="60" height="60" viewBox="0 0 60 60" fill="none" xmlns="http://www.w3.org/2000/svg">
<path d="M19.375 10C19.375 8.96447 18.5356 8.125 17.5 8.125C16.4645 8.125 15.625 8.96447 15.625 10V14.5411C11.8923 15.0688 8.94347 18.0211 8.44428 21.7871L8.2279 23.4195C8.19122 23.6962 8.15614 23.9731 8.12267 24.2502C8.03387 24.9851 8.61289 25.625 9.35315 25.625H50.6468C51.387 25.625 51.966 24.9851 51.8773 24.2502C51.8438 23.9731 51.8087 23.6962 51.772 23.4195L51.5556 21.7871C51.0564 18.0212 48.1076 15.0689 44.375 14.5411V10C44.375 8.96447 43.5356 8.125 42.5 8.125C41.4645 8.125 40.625 8.96447 40.625 10V14.1691C33.5557 13.5395 26.4444 13.5395 19.375 14.1691V10Z" fill="#00DA8C"/>
<path d="M52.3614 30.5639C52.3396 29.8978 51.7892 29.375 51.1227 29.375H8.8772C8.21077 29.375 7.66035 29.8978 7.63847 30.5639C7.48997 35.083 7.76447 39.6114 8.46131 44.0896C8.98883 47.4797 11.743 50.0836 15.1573 50.4203L18.1398 50.7145C26.0275 51.4923 33.9725 51.4923 41.8601 50.7145L44.8426 50.4203C48.2569 50.0836 51.0111 47.4797 51.5386 44.0896C52.2354 39.6114 52.5099 35.083 52.3614 30.5639Z" fill="#00DA8C"/>
</svg>
