<svg width="37" height="37" viewBox="0 0 37 37" fill="none" xmlns="http://www.w3.org/2000/svg">
<g clip-path="url(#clip0_2003_74)">
<path d="M25.6667 3.58337L34.625 12.5417V37.6394C34.6245 38.1109 34.4369 38.563 34.1033 38.8962C33.7697 39.2295 33.3174 39.4167 32.8459 39.4167H4.15412C3.68359 39.4134 3.23324 39.2252 2.90035 38.8926C2.56746 38.5601 2.37875 38.1099 2.375 37.6394V5.36071C2.375 4.37887 3.17229 3.58337 4.15412 3.58337H25.6667ZM18.5 20.6042C19.6879 20.6042 20.8272 20.1323 21.6672 19.2923C22.5073 18.4523 22.9792 17.313 22.9792 16.125C22.9792 14.9371 22.5073 13.7978 21.6672 12.9578C20.8272 12.1178 19.6879 11.6459 18.5 11.6459C17.3121 11.6459 16.1728 12.1178 15.3328 12.9578C14.4927 13.7978 14.0208 14.9371 14.0208 16.125C14.0208 17.313 14.4927 18.4523 15.3328 19.2923C16.1728 20.1323 17.3121 20.6042 18.5 20.6042ZM10.4859 30.4584H26.5141C26.2969 28.4847 25.3591 26.6605 23.8802 25.3355C22.4014 24.0105 20.4856 23.2778 18.5 23.2778C16.5144 23.2778 14.5986 24.0105 13.1198 25.3355C11.6409 26.6605 10.7031 28.4847 10.4859 30.4584Z" fill="#FFE600"/>
</g>
<defs>
<clipPath id="clip0_2003_74">
<rect width="37" height="37" fill="white"/>
</clipPath>
</defs>
</svg>
