<svg width="30" height="30" viewBox="0 0 42 42" fill="none" xmlns="http://www.w3.org/2000/svg">
<path d="M2.50048 16.6512C7.29148 27.0859 15.8165 35.3822 26.4154 39.8797L28.1143 40.6367C32.0014 42.3685 36.5708 41.0528 38.9416 37.519L41.1618 34.2098C41.8837 33.1338 41.6639 31.6847 40.6555 30.8712L33.1259 24.7967C32.0199 23.9045 30.3936 24.1123 29.5476 25.2539L27.2182 28.3971C21.2412 25.4487 16.3886 20.5961 13.4402 14.6191L16.5834 12.2898C17.725 11.4437 17.9328 9.81744 17.0406 8.71148L10.9659 1.18162C10.1526 0.173419 8.70381 -0.0464988 7.62789 0.674923L4.29579 2.90917C0.739928 5.29344 -0.568524 9.90056 1.20331 13.7979L2.49853 16.647L2.50048 16.6512Z" fill="#FF6D6D"/>
</svg>
