<svg width="59" height="46" viewBox="0 0 59 46" fill="none" xmlns="http://www.w3.org/2000/svg">
<path d="M10.2 3.60492C11.5333 1.87159 12.9333 0.871589 14.4 0.604926C16 0.338262 17.3333 0.60493 18.4 1.40493C19.6 2.20492 20.2667 3.40493 20.4 5.00493C20.5333 6.60492 19.8667 8.33825 18.4 10.2049C16.1333 13.0049 14.5333 15.9383 13.6 19.0049C12.8 21.9383 12.4 24.6049 12.4 27.0049L11.6 22.4049C15.3333 22.4049 18.3333 23.5383 20.6 25.8049C23 27.9383 24.2 30.8049 24.2 34.4049C24.2 37.7383 23.1333 40.5383 21 42.8049C18.8667 44.9383 16 46.0049 12.4 46.0049C8.8 46.0049 5.86667 44.7383 3.6 42.2049C1.46667 39.6716 0.400001 36.0716 0.400001 31.4049C0.400001 28.6049 0.666667 25.6716 1.2 22.6049C1.86667 19.4049 2.86667 16.2049 4.2 13.0049C5.66667 9.80492 7.66667 6.67159 10.2 3.60492ZM44.6 3.60492C45.9333 1.87159 47.3333 0.871589 48.8 0.604926C50.4 0.338262 51.7333 0.60493 52.8 1.40493C54 2.20492 54.6667 3.40493 54.8 5.00493C54.9333 6.60492 54.2667 8.33825 52.8 10.2049C50.5333 13.0049 48.9333 15.9383 48 19.0049C47.2 21.9383 46.8 24.6049 46.8 27.0049L46 22.4049C49.7333 22.4049 52.7333 23.5383 55 25.8049C57.4 27.9383 58.6 30.8049 58.6 34.4049C58.6 37.7383 57.5333 40.5383 55.4 42.8049C53.2667 44.9383 50.4 46.0049 46.8 46.0049C43.2 46.0049 40.2667 44.7383 38 42.2049C35.8667 39.6716 34.8 36.0716 34.8 31.4049C34.8 28.6049 35.0667 25.6716 35.6 22.6049C36.2667 19.4049 37.2667 16.2049 38.6 13.0049C40.0667 9.80492 42.0667 6.67159 44.6 3.60492Z" fill="#FF9028"/>
</svg>
